<?xml version="1.0" encoding="UTF-8"?><svg id="Layer_2" xmlns="http://www.w3.org/2000/svg" viewBox="0 0 217.4 91.68"><defs><style>.cls-1{fill:#043b58;}.cls-2{fill:#6f9243;}</style></defs><g id="Layer_1-2"><g><g><g><path class="cls-2" d="M108.67,10.07h4.14c2.66,0,4.61,.81,4.61,3.19,0,1.22-.66,2.4-1.79,2.8v.08c1.43,.32,2.48,1.32,2.48,3.07,0,2.59-2.12,3.8-4.97,3.8h-4.47V10.07Zm3.93,5.34c1.8,0,2.57-.7,2.57-1.83,0-1.25-.85-1.72-2.52-1.72h-1.68v3.55h1.64Zm.3,5.81c1.9,0,2.96-.68,2.96-2.14,0-1.36-1.03-1.95-2.96-1.95h-1.94v4.09h1.94Z"/><path class="cls-2" d="M120.38,10.3c0-.77,.6-1.29,1.41-1.29s1.41,.52,1.41,1.29-.6,1.29-1.41,1.29-1.41-.54-1.41-1.29Zm.26,2.99h2.28v9.71h-2.28V13.29Z"/><path class="cls-2" d="M125.54,18.16c0-3.23,2.2-5.1,4.62-5.1s4.62,1.87,4.62,5.1-2.2,5.09-4.62,5.09-4.62-1.87-4.62-5.09Zm6.9,0c0-1.95-.85-3.24-2.28-3.24s-2.28,1.3-2.28,3.24,.85,3.23,2.28,3.23,2.28-1.28,2.28-3.23Z"/><path class="cls-2" d="M136.8,18.16c0-3.16,1.99-5.1,4.11-5.1,1.1,0,1.8,.41,2.55,1.07l-.09-1.57v-3.52h2.28v13.97h-1.87l-.17-1.05h-.06c-.72,.72-1.72,1.29-2.76,1.29-2.42,0-3.99-1.88-3.99-5.09Zm6.57,2.11v-4.52c-.66-.59-1.32-.81-1.98-.81-1.23,0-2.25,1.17-2.25,3.2s.81,3.23,2.21,3.23c.75,0,1.38-.33,2.03-1.09Z"/><path class="cls-2" d="M148.64,10.3c0-.77,.6-1.29,1.41-1.29s1.41,.52,1.41,1.29-.6,1.29-1.41,1.29-1.41-.54-1.41-1.29Zm.26,2.99h2.28v9.71h-2.28V13.29Z"/><path class="cls-2" d="M153.23,13.29h2.31l1.54,5.04c.27,.96,.55,1.95,.82,2.93h.08c.27-.97,.55-1.97,.82-2.93l1.54-5.04h2.2l-3.3,9.71h-2.63l-3.39-9.71Z"/><path class="cls-2" d="M163.83,18.16c0-3.16,2.19-5.1,4.48-5.1,2.63,0,4.01,1.9,4.01,4.61,0,.44-.05,.87-.1,1.11h-6.17c.19,1.72,1.3,2.71,2.86,2.71,.83,0,1.54-.26,2.25-.7l.78,1.42c-.93,.62-2.1,1.05-3.33,1.05-2.68,0-4.79-1.88-4.79-5.09Zm6.52-.93c0-1.5-.67-2.4-1.99-2.4-1.13,0-2.13,.85-2.33,2.4h4.32Z"/><path class="cls-2" d="M174.86,13.29h1.87l.17,1.73h.06c.69-1.27,1.72-1.97,2.76-1.97,.49,0,.81,.06,1.1,.2l-.4,1.98c-.34-.09-.59-.16-1-.16-.78,0-1.71,.53-2.29,2.01v5.92h-2.28V13.29Z"/><path class="cls-2" d="M181.51,21.89l1.06-1.45c.86,.67,1.7,1.08,2.68,1.08,1.06,0,1.56-.5,1.56-1.16,0-.81-1.05-1.18-2.09-1.57-1.27-.48-2.73-1.21-2.73-2.83s1.36-2.9,3.54-2.9c1.35,0,2.44,.55,3.23,1.16l-1.04,1.4c-.68-.5-1.37-.85-2.13-.85-.98,0-1.44,.47-1.44,1.08,0,.77,.98,1.06,2.03,1.45,1.31,.49,2.78,1.12,2.78,2.93,0,1.67-1.32,3.01-3.77,3.01-1.33,0-2.73-.57-3.68-1.35Z"/><path class="cls-2" d="M191.09,10.3c0-.77,.6-1.29,1.41-1.29s1.41,.52,1.41,1.29-.6,1.29-1.41,1.29-1.41-.54-1.41-1.29Zm.26,2.99h2.28v9.71h-2.28V13.29Z"/><path class="cls-2" d="M197.23,19.73v-4.63h-1.38v-1.71l1.5-.1,.27-2.65h1.89v2.65h2.48v1.81h-2.48v4.62c0,1.14,.44,1.7,1.38,1.7,.33,0,.73-.11,1.01-.22l.39,1.68c-.53,.17-1.21,.36-1.99,.36-2.24,0-3.07-1.42-3.07-3.51Z"/><path class="cls-2" d="M203.76,26.8l.42-1.76c.19,.06,.47,.13,.7,.13,1.02,0,1.61-.7,1.94-1.67l.18-.61-3.82-9.6h2.31l1.68,4.76c.29,.86,.57,1.82,.85,2.74h.08c.25-.9,.49-1.86,.74-2.74l1.45-4.76h2.2l-3.51,10.16c-.81,2.19-1.83,3.54-3.95,3.54-.53,0-.91-.08-1.27-.2Z"/><path class="cls-2" d="M108.67,30.67h2.29v12.93h-2.29v-12.93Z"/><path class="cls-2" d="M114.41,33.89h1.87l.17,1.31h.06c.87-.85,1.86-1.55,3.19-1.55,2.08,0,2.99,1.41,2.99,3.86v6.09h-2.28v-5.8c0-1.6-.46-2.2-1.51-2.2-.85,0-1.42,.42-2.21,1.21v6.79h-2.28v-9.71Z"/><path class="cls-2" d="M124.92,34l1.42-.1h4.06v1.81h-5.48v-1.71Zm1.3-1.11c0-2.01,.93-3.49,3.22-3.49,.7,0,1.34,.17,1.78,.34l-.43,1.7c-.35-.15-.72-.23-1.05-.23-.81,0-1.23,.51-1.23,1.64v10.76h-2.28v-10.72Z"/><path class="cls-2" d="M131.63,38.76c0-3.23,2.2-5.1,4.62-5.1s4.62,1.87,4.62,5.1-2.2,5.09-4.62,5.09-4.62-1.87-4.62-5.09Zm6.9,0c0-1.95-.85-3.24-2.28-3.24s-2.28,1.3-2.28,3.24,.85,3.23,2.28,3.23,2.28-1.28,2.28-3.23Z"/><path class="cls-2" d="M143.48,33.89h1.87l.17,1.73h.06c.69-1.27,1.72-1.97,2.76-1.97,.49,0,.81,.06,1.1,.2l-.4,1.98c-.34-.09-.59-.16-1-.16-.78,0-1.71,.53-2.29,2.01v5.92h-2.28v-9.71Z"/><path class="cls-2" d="M151.22,33.89h1.87l.17,1.33h.06c.82-.86,1.76-1.56,2.98-1.56,1.42,0,2.23,.65,2.68,1.74,.93-.99,1.89-1.74,3.12-1.74,2.05,0,3,1.41,3,3.86v6.09h-2.28v-5.8c0-1.6-.47-2.2-1.5-2.2-.62,0-1.28,.4-2.03,1.21v6.79h-2.28v-5.8c0-1.6-.47-2.2-1.5-2.2-.6,0-1.28,.4-2.03,1.21v6.79h-2.28v-9.71Z"/><path class="cls-2" d="M167.73,41c0-2.08,1.72-3.16,5.71-3.59-.03-1.04-.45-1.91-1.76-1.91-.97,0-1.88,.44-2.73,.96l-.84-1.52c1.07-.67,2.44-1.27,3.99-1.27,2.43,0,3.62,1.5,3.62,4.2v5.75h-1.87l-.17-1.08h-.06c-.87,.74-1.87,1.31-3.01,1.31-1.7,0-2.87-1.15-2.87-2.85Zm5.71,0v-2.18c-2.63,.33-3.51,1.02-3.51,2,0,.86,.58,1.23,1.4,1.23s1.39-.39,2.11-1.05Z"/><path class="cls-2" d="M178.84,40.33v-4.63h-1.38v-1.71l1.5-.1,.27-2.65h1.89v2.65h2.48v1.81h-2.48v4.62c0,1.14,.44,1.7,1.38,1.7,.33,0,.73-.11,1.01-.22l.39,1.68c-.53,.17-1.21,.36-1.99,.36-2.24,0-3.07-1.42-3.07-3.51Z"/><path class="cls-2" d="M185.73,30.9c0-.77,.6-1.29,1.41-1.29s1.41,.52,1.41,1.29-.6,1.29-1.41,1.29-1.41-.54-1.41-1.29Zm.26,2.99h2.28v9.71h-2.28v-9.71Z"/><path class="cls-2" d="M190.89,38.76c0-3.23,2.2-5.1,4.62-5.1s4.62,1.87,4.62,5.1-2.2,5.09-4.62,5.09-4.62-1.87-4.62-5.09Zm6.9,0c0-1.95-.85-3.24-2.28-3.24s-2.28,1.3-2.28,3.24,.85,3.23,2.28,3.23,2.28-1.28,2.28-3.23Z"/><path class="cls-2" d="M202.74,33.89h1.87l.17,1.31h.06c.87-.85,1.86-1.55,3.19-1.55,2.08,0,2.99,1.41,2.99,3.86v6.09h-2.28v-5.8c0-1.6-.46-2.2-1.51-2.2-.85,0-1.42,.42-2.21,1.21v6.79h-2.28v-9.71Z"/><path class="cls-2" d="M107.79,62.55l1.34-1.57c.93,.88,2.17,1.48,3.37,1.48,1.46,0,2.25-.66,2.25-1.67,0-1.06-.83-1.4-2.01-1.9l-1.77-.77c-1.27-.53-2.61-1.54-2.61-3.43,0-2.06,1.82-3.65,4.34-3.65,1.51,0,2.97,.62,3.99,1.65l-1.18,1.46c-.82-.7-1.7-1.11-2.81-1.11-1.23,0-2.03,.57-2.03,1.52,0,1.02,.99,1.39,2.06,1.83l1.74,.73c1.54,.64,2.61,1.61,2.61,3.49,0,2.1-1.74,3.84-4.64,3.84-1.75,0-3.43-.69-4.66-1.89Z"/><path class="cls-2" d="M119.44,60.93v-4.63h-1.38v-1.71l1.5-.1,.27-2.65h1.89v2.65h2.48v1.81h-2.48v4.62c0,1.14,.44,1.7,1.38,1.7,.33,0,.73-.11,1.01-.22l.39,1.68c-.53,.17-1.21,.36-1.99,.36-2.24,0-3.07-1.42-3.07-3.51Z"/><path class="cls-2" d="M125.65,61.6c0-2.08,1.72-3.16,5.71-3.59-.03-1.04-.45-1.91-1.76-1.91-.97,0-1.88,.44-2.73,.96l-.84-1.52c1.07-.67,2.44-1.27,3.99-1.27,2.43,0,3.62,1.5,3.62,4.2v5.75h-1.87l-.17-1.08h-.06c-.87,.74-1.87,1.31-3.01,1.31-1.7,0-2.87-1.15-2.87-2.85Zm5.71,0v-2.18c-2.63,.33-3.51,1.02-3.51,2,0,.86,.58,1.23,1.4,1.23s1.39-.39,2.11-1.05Z"/><path class="cls-2" d="M136.74,54.49h1.87l.17,1.31h.06c.87-.85,1.86-1.55,3.19-1.55,2.08,0,2.99,1.41,2.99,3.86v6.09h-2.28v-5.8c0-1.6-.46-2.2-1.51-2.2-.85,0-1.42,.42-2.21,1.21v6.79h-2.28v-9.71Z"/><path class="cls-2" d="M147.58,59.36c0-3.16,1.99-5.1,4.11-5.1,1.1,0,1.8,.41,2.55,1.07l-.09-1.57v-3.52h2.28v13.97h-1.87l-.17-1.05h-.06c-.72,.72-1.72,1.29-2.76,1.29-2.42,0-3.99-1.88-3.99-5.09Zm6.57,2.11v-4.52c-.66-.59-1.32-.81-1.98-.81-1.23,0-2.25,1.17-2.25,3.2s.81,3.23,2.21,3.23c.75,0,1.38-.33,2.03-1.09Z"/><path class="cls-2" d="M159.16,61.6c0-2.08,1.72-3.16,5.71-3.59-.03-1.04-.45-1.91-1.76-1.91-.97,0-1.88,.44-2.73,.96l-.84-1.52c1.07-.67,2.44-1.27,3.99-1.27,2.43,0,3.62,1.5,3.62,4.2v5.75h-1.87l-.17-1.08h-.06c-.87,.74-1.87,1.31-3.01,1.31-1.7,0-2.87-1.15-2.87-2.85Zm5.71,0v-2.18c-2.63,.33-3.51,1.02-3.51,2,0,.86,.58,1.23,1.4,1.23s1.39-.39,2.11-1.05Z"/><path class="cls-2" d="M170.25,54.49h1.87l.17,1.73h.06c.69-1.27,1.72-1.97,2.76-1.97,.49,0,.81,.06,1.1,.2l-.4,1.98c-.34-.09-.59-.16-1-.16-.78,0-1.71,.53-2.29,2.01v5.92h-2.28v-9.71Z"/><path class="cls-2" d="M177.19,59.36c0-3.16,1.99-5.1,4.11-5.1,1.1,0,1.79,.41,2.55,1.07l-.09-1.57v-3.52h2.28v13.97h-1.87l-.17-1.05h-.06c-.72,.72-1.72,1.29-2.76,1.29-2.42,0-3.99-1.88-3.99-5.09Zm6.57,2.11v-4.52c-.67-.59-1.32-.81-1.98-.81-1.23,0-2.25,1.17-2.25,3.2s.81,3.23,2.21,3.23c.75,0,1.38-.33,2.03-1.09Z"/><path class="cls-2" d="M188.33,63.09l1.06-1.45c.86,.67,1.7,1.08,2.68,1.08,1.06,0,1.56-.5,1.56-1.16,0-.81-1.05-1.18-2.09-1.57-1.27-.48-2.73-1.21-2.73-2.83s1.36-2.9,3.54-2.9c1.35,0,2.44,.55,3.23,1.16l-1.04,1.4c-.68-.5-1.37-.85-2.13-.85-.98,0-1.44,.47-1.44,1.08,0,.77,.98,1.06,2.03,1.45,1.31,.49,2.78,1.12,2.78,2.93,0,1.67-1.32,3.01-3.77,3.01-1.33,0-2.73-.57-3.68-1.35Z"/></g><g><path class="cls-1" d="M143.09,76.17c-.29-.1-.53-.14-1.14-.14h-2.26v5.06h2.18c.11,0,.73,.02,1.21-.16,.69-.24,1.28-.92,1.28-2.47,0-.19,.01-1.38-.72-2-.08-.07-.27-.2-.53-.3Z"/><path class="cls-1" d="M189.17,71.45H114.8c-3.87,0-7.01,3.14-7.01,7.01s3.14,7.01,7.01,7.01h74.38c3.87,0,7.01-3.14,7.01-7.01s-3.14-7.01-7.01-7.01Zm-55.81,4.62h-2.9v6.41h-1.98v-6.41h-2.91v-1.43h7.78v1.43Zm11.78,5.38c-.22,.21-.69,.61-1.46,.83-.49,.14-.9,.19-1.91,.19h-4.04v-7.84h4.3c.98,0,1.8,.09,2.65,.62,.12,.08,.38,.23,.63,.5,.7,.72,.99,1.78,.99,2.76,0,1.61-.68,2.49-1.15,2.93Zm14.7,1.02h-1.92l-1.9-5.71-1.86,5.71h-1.95l-2.07-7.84h1.91l1.18,5.35,1.8-5.35h2.04l1.77,5.35,1.19-5.35h1.88l-2.05,7.84Zm8.13-2.84c.61,1.57,2.32,1.64,2.77,1.64,.85,0,1.88-.29,2.47-.95,.24-.28,.31-.5,.37-.63h-2.56v-1.41h4.21v4.2h-1.5v-.9c-.09,.09-.18,.17-.28,.24-.33,.27-1.03,.69-2.1,.83-.29,.04-.59,.06-.87,.06-1.67,0-2.59-.44-3.17-.88-.46-.33-1.17-.94-1.44-2.29-.03-.17-.11-.57-.11-1.02,0-1.42,.71-2.39,1.05-2.75,.21-.22,.49-.44,.74-.61,.99-.62,2.06-.79,3.21-.79,.53,0,2.61,.01,3.94,1.48,.22,.26,.36,.47,.52,.76l-2.17,.3c-.04-.06-.23-.29-.43-.47-.52-.44-1.24-.61-1.94-.61-.96,0-1.97,.34-2.5,1.19-.16,.24-.41,.79-.41,1.53,0,.18,.01,.61,.2,1.09Z"/></g></g><g><g><ellipse class="cls-2" cx="28.74" cy="45.33" rx="3.32" ry="3.3"/><ellipse class="cls-2" cx="40.07" cy="3.71" rx="3.32" ry="3.3"/><ellipse class="cls-2" cx="25.31" cy="13.63" rx="2.72" ry="2.7"/><ellipse class="cls-2" cx="24.95" cy="22.99" rx="4.67" ry="4.64"/><ellipse class="cls-2" cx="15.81" cy="31.27" rx="3.05" ry="3.03"/><ellipse class="cls-2" cx="11.34" cy="39.67" rx="5.08" ry="5.05"/><ellipse class="cls-2" cx="13.87" cy="52.66" rx="3.13" ry="3.11"/><ellipse class="cls-2" cx="14.88" cy="61.79" rx="4.7" ry="4.67"/><ellipse class="cls-2" cx="22.64" cy="68.06" rx="2.32" ry="2.31"/><ellipse class="cls-2" cx="31.32" cy="37.8" rx="2.32" ry="2.31"/><ellipse class="cls-2" cx="27.26" cy="54.79" rx="2.67" ry="2.65"/><ellipse class="cls-2" cx="1.62" cy="45.05" rx="1.62" ry="1.61"/><ellipse class="cls-2" cx="4.62" cy="59.18" rx="2.32" ry="2.31"/><ellipse class="cls-2" cx="20.91" cy="44.55" rx="2.18" ry="2.17"/><ellipse class="cls-2" cx="21.83" cy="30.39" rx="1.89" ry="1.88"/><ellipse class="cls-2" cx="28.39" cy="69.05" rx="2.27" ry="2.26"/><ellipse class="cls-2" cx="39.06" cy="75.19" rx="4.21" ry="4.18"/><ellipse class="cls-2" cx="34.02" cy="58.45" rx="2.41" ry="2.4"/><ellipse class="cls-2" cx="40.72" cy="55.66" rx="2.42" ry="2.4"/><ellipse class="cls-1" cx="40.58" cy="11.82" rx="2.93" ry="2.92"/><ellipse class="cls-1" cx="34.59" cy="21.11" rx="3.82" ry="3.79"/><ellipse class="cls-1" cx="32.81" cy="12.29" rx="3.78" ry="3.76"/><ellipse class="cls-1" cx="17" cy="16.01" rx="4.54" ry="4.51"/><ellipse class="cls-1" cx="17.1" cy="25.56" rx="2.15" ry="2.14"/><ellipse class="cls-1" cx="5.57" cy="32.12" rx="3.1" ry="3.08"/><ellipse class="cls-1" cx="2.83" cy="39.62" rx="2.66" ry="2.64"/><ellipse class="cls-1" cx="5.33" cy="50.95" rx="4.42" ry="4.39"/><ellipse class="cls-1" cx="7.16" cy="65.73" rx="2.52" ry="2.51"/><ellipse class="cls-1" cx="13.79" cy="74.13" rx="2.91" ry="2.89"/><ellipse class="cls-1" cx="24.29" cy="76.71" rx="5.05" ry="5.02"/><ellipse class="cls-1" cx="28.92" cy="85.45" rx="3.27" ry="3.25"/><ellipse class="cls-1" cx="38.41" cy="85.86" rx="4.92" ry="4.89"/><ellipse class="cls-2" cx="10.11" cy="22.57" rx="3.07" ry="3.05"/><ellipse class="cls-1" cx="40.93" cy="29" rx="2.92" ry="2.91"/><ellipse class="cls-1" cx="20.44" cy="37.12" rx="3.41" ry="3.39"/><ellipse class="cls-1" cx="37.11" cy="34.28" rx="2.73" ry="2.72"/><ellipse class="cls-2" cx="34.08" cy="28.24" rx="2.05" ry="2.04"/><ellipse class="cls-2" cx="36.64" cy="45.98" rx="1.95" ry="1.94"/><ellipse class="cls-2" cx="42.41" cy="36.71" rx="1.51" ry="1.5"/><ellipse class="cls-2" cx="42.25" cy="46.8" rx="1.51" ry="1.5"/><ellipse class="cls-2" cx="41.49" cy="23.58" rx="1.51" ry="1.5"/><ellipse class="cls-2" cx="41.62" cy="18.32" rx="1.88" ry="1.87"/><ellipse class="cls-2" cx="41.57" cy="67.27" rx="1.51" ry="1.5"/><ellipse class="cls-2" cx="19.97" cy="56.93" rx="1.51" ry="1.5"/><ellipse class="cls-2" cx="11.26" cy="47.28" rx="1.51" ry="1.5"/><ellipse class="cls-2" cx="16.83" cy="79.23" rx="1.94" ry="1.93"/><ellipse class="cls-2" cx="10.85" cy="70.03" rx="1.51" ry="1.5"/><ellipse class="cls-2" cx="32.54" cy="79.37" rx="2.08" ry="2.06"/><ellipse class="cls-2" cx="26.53" cy="6.22" rx="2.05" ry="2.04"/><ellipse class="cls-1" cx="27.76" cy="31.38" rx="2.75" ry="2.73"/><ellipse class="cls-1" cx="26.45" cy="39.16" rx="1.58" ry="1.57"/><ellipse class="cls-1" cx="21.97" cy="8.49" rx="1.58" ry="1.57"/><ellipse class="cls-1" cx="10.61" cy="28.27" rx="1.88" ry="1.86"/><ellipse class="cls-1" cx="15.97" cy="46.08" rx="1.58" ry="1.57"/><ellipse class="cls-1" cx="21.36" cy="51" rx="3.09" ry="3.07"/><ellipse class="cls-1" cx="33.41" cy="51.42" rx="2.93" ry="2.91"/><ellipse class="cls-1" cx="24.27" cy="61.56" rx="3.39" ry="3.37"/><ellipse class="cls-1" cx="30.34" cy="63.11" rx="1.53" ry="1.52"/><ellipse class="cls-1" cx="31.54" cy="73.63" rx="1.53" ry="1.52"/><ellipse class="cls-1" cx="17.2" cy="69.99" rx="1.53" ry="1.52"/><ellipse class="cls-1" cx="9.4" cy="57.04" rx="1.53" ry="1.52"/><ellipse class="cls-1" cx="35.35" cy="67.05" rx="3.43" ry="3.41"/><ellipse class="cls-1" cx="40.73" cy="61.65" rx="2.68" ry="2.66"/><ellipse class="cls-1" cx="41.94" cy="41.77" rx="1.58" ry="1.58"/><ellipse class="cls-1" cx="39.86" cy="50.67" rx="1.58" ry="1.58"/><ellipse class="cls-1" cx="36.67" cy="40.75" rx="2.26" ry="2.25"/><ellipse class="cls-1" cx="32.09" cy="4.22" rx="2.26" ry="2.25"/></g><rect class="cls-1" x="45.95" y="0" width="2.6" height="91.68" rx="1.3" ry="1.3"/><g><g><path class="cls-1" d="M50.57,85.55c-.22-2.88,1.85-5.39,4.64-5.63h0c2.79-.22,5.23,1.91,5.45,4.79h0c.23,2.88-1.85,5.39-4.63,5.63h0c-.14,.01-.27,.01-.41,.01h0c-2.61,0-4.83-2.07-5.04-4.8Z"/><path class="cls-1" d="M63.05,83.7c-1.12-2.64,.04-5.72,2.6-6.88h0c2.56-1.16,5.54,.04,6.67,2.69h0c1.12,2.64-.04,5.72-2.6,6.88h0c-.66,.3-1.35,.44-2.03,.44h0c-1.95,0-3.81-1.17-4.64-3.12Z"/><path class="cls-1" d="M73.79,77.9c-1.89-2.14-1.74-5.43,.31-7.38h0c2.06-1.94,5.26-1.8,7.15,.33h0c1.88,2.12,1.74,5.43-.32,7.38h0c-.97,.91-2.19,1.37-3.41,1.37h0c-1.37,0-2.73-.57-3.74-1.7Z"/><path class="cls-1" d="M82.3,69.23c-2.46-1.37-3.37-4.54-2.03-7.08h-.01c1.34-2.53,4.41-3.46,6.87-2.09h0c2.45,1.38,3.36,4.55,2.03,7.08h0c-.93,1.74-2.66,2.73-4.46,2.73h0c-.82,0-1.64-.2-2.41-.64Z"/><path class="cls-1" d="M87.76,57.52c-2.76-.48-4.61-3.16-4.15-5.99h0c.01-.06,.01-.1,.02-.15h0c.46-2.85,3.06-4.78,5.82-4.3h0c2.76,.46,4.62,3.15,4.17,5.99h0c-.01,.06-.02,.1-.03,.16h0c-.41,2.56-2.56,4.37-4.98,4.37h0c-.28,0-.57-.02-.85-.08Z"/><path class="cls-1" d="M83.62,40.11h0c-.46-2.84,1.39-5.54,4.15-6.01h0c2.76-.48,5.37,1.43,5.84,4.28h0c.46,2.84-1.41,5.53-4.15,6.01h0c-.29,.04-.57,.07-.85,.07h0c-2.43,0-4.58-1.8-4.99-4.35Z"/><path class="cls-1" d="M79.7,30.39h0c-1.33-2.54-.43-5.71,2.03-7.08h0c2.46-1.38,5.53-.44,6.86,2.09h.01c1.33,2.53,.42,5.71-2.04,7.08h0c-.76,.43-1.59,.64-2.41,.64h0c-1.8,0-3.54-.99-4.46-2.73Z"/><path class="cls-1" d="M74.04,21.58c-2.06-1.96-2.19-5.26-.29-7.38h0c1.9-2.12,5.1-2.26,7.15-.3h0c2.06,1.96,2.19,5.26,.3,7.37h0c-1,1.12-2.36,1.69-3.73,1.69h0c-1.23,0-2.45-.45-3.43-1.37Z"/><path class="cls-1" d="M65.41,14.71c-2.56-1.15-3.74-4.23-2.62-6.87h0c1.11-2.64,4.1-3.85,6.66-2.7h0c2.56,1.16,3.74,4.23,2.61,6.87h0c-.83,1.97-2.69,3.13-4.64,3.13h0c-.68,0-1.36-.13-2.01-.44Z"/><path class="cls-1" d="M55.52,11.36c-2.79-.19-4.9-2.67-4.73-5.55h0c.19-2.88,2.59-5.06,5.38-4.88h0c2.79,.19,4.9,2.67,4.73,5.55h0c-.17,2.76-2.41,4.89-5.04,4.89h0c-.11,0-.22-.01-.34-.01Z"/><path class="cls-1" d="M51.1,64.81c-.16-1.55,.92-2.93,2.41-3.11h0c1.5-.17,2.84,.94,3.01,2.48h0c.17,1.55-.9,2.93-2.4,3.1h0c-.11,.01-.21,.02-.31,.02h0c-1.37,0-2.55-1.07-2.71-2.5Z"/><path class="cls-1" d="M58.6,63.48c-.76-1.34-.33-3.07,.98-3.84h0c1.3-.79,2.96-.34,3.73,1h0c.75,1.34,.32,3.07-.98,3.84h0c-.44,.27-.9,.39-1.37,.39h0c-.94,0-1.85-.51-2.35-1.39Z"/><path class="cls-1" d="M64.77,59.12c-1.22-.9-1.49-2.65-.62-3.92h0c.88-1.26,2.58-1.54,3.8-.64h0c1.22,.91,1.5,2.66,.62,3.92h0c-.53,.76-1.36,1.17-2.21,1.17h0c-.54,0-1.11-.17-1.59-.53Z"/><path class="cls-1" d="M68.83,52.49c-1.47-.31-2.42-1.8-2.11-3.32h.01v-.06h0c.29-1.52,1.73-2.51,3.21-2.2h0c1.47,.3,2.43,1.79,2.12,3.32h0s0,.06-.01,.08h0c-.26,1.33-1.41,2.25-2.67,2.25h0c-.17,0-.37-.02-.56-.07Z"/><path class="cls-1" d="M66.68,42.53c-.33-1.52,.6-3.02,2.06-3.36h0c1.47-.34,2.93,.62,3.26,2.14h0c.33,1.52-.6,3.01-2.07,3.35h0c-.2,.06-.4,.07-.59,.07h0c-1.25,0-2.39-.89-2.66-2.19Z"/><path class="cls-1" d="M64.02,36.53c-.89-1.25-.63-3,.58-3.92h0c1.21-.92,2.91-.66,3.8,.58h0c.89,1.25,.64,3.01-.57,3.93h0c-.49,.37-1.06,.55-1.62,.55h0c-.83,0-1.66-.4-2.19-1.15Z"/><path class="cls-1" d="M59.39,32.17c-1.31-.78-1.78-2.48-1.04-3.83h0c.74-1.35,2.41-1.83,3.72-1.07h0c1.31,.76,1.76,2.48,1.02,3.83h0c-.5,.91-1.42,1.43-2.36,1.43h0c-.46,0-.92-.12-1.34-.36Z"/><path class="cls-1" d="M53.32,30.24c-1.5-.13-2.61-1.48-2.48-3.03h0c.12-1.55,1.44-2.7,2.94-2.56h0c1.49,.12,2.62,1.48,2.48,3.03h0c-.12,1.46-1.31,2.57-2.71,2.57h0c-.08,0-.15,0-.23-.01Z"/></g><g><path class="cls-2" d="M50.66,74.28c-.23-2.32,1.41-4.38,3.65-4.62h0c2.24-.24,4.25,1.45,4.48,3.76h0c.23,2.32-1.41,4.38-3.65,4.62h0c-.14,.01-.28,.02-.41,.02h0c-2.08,0-3.85-1.62-4.06-3.79Z"/><path class="cls-2" d="M61.92,72.38c-1.12-2.02-.44-4.6,1.52-5.75h0c1.95-1.16,4.44-.46,5.57,1.56h0c1.12,2.02,.45,4.6-1.51,5.75h0c-.64,.38-1.34,.56-2.03,.56h0c-1.42,0-2.79-.76-3.55-2.12Z"/><path class="cls-2" d="M70.92,65.93c-1.82-1.38-2.21-4.02-.88-5.9h0c1.34-1.88,3.89-2.28,5.71-.9h0c1.82,1.37,2.21,4.01,.88,5.89h0c-.81,1.12-2.04,1.72-3.3,1.72h0c-.84,0-1.69-.26-2.41-.81Z"/><path class="cls-2" d="M76.74,56.02c-2.2-.49-3.61-2.73-3.13-5.01h0s.01-.03,.01-.04h0s.01-.02,.01-.03h0c.46-2.28,2.64-3.73,4.84-3.25h0c2.21,.48,3.62,2.72,3.15,4.99h0s0,.03-.01,.04h0s-.01,.06-.01,.08h0c-.41,1.98-2.1,3.33-3.99,3.33h0c-.28,0-.58-.03-.87-.1Z"/><path class="cls-2" d="M73.65,41.02c-.47-2.28,.94-4.52,3.15-5h0c2.2-.48,4.37,.97,4.84,3.25h0c.47,2.27-.94,4.52-3.15,5h0c-.28,.06-.57,.09-.85,.09h0c-1.88,0-3.58-1.36-3.99-3.34Z"/><path class="cls-2" d="M70.1,31.97h-.01c-1.32-1.88-.91-4.52,.91-5.88h0c1.83-1.37,4.38-.94,5.71,.93h0c1.32,1.89,.91,4.52-.91,5.89h0c-.72,.54-1.56,.8-2.39,.8h0c-1.27,0-2.52-.6-3.31-1.74Z"/><path class="cls-2" d="M63.54,25.34c-1.95-1.17-2.63-3.74-1.49-5.75h0c1.13-2.02,3.63-2.71,5.59-1.54h0c1.95,1.17,2.61,3.74,1.48,5.75h0c-.75,1.35-2.12,2.11-3.54,2.11h0c-.69,0-1.39-.19-2.04-.57Z"/><path class="cls-2" d="M54.46,22.35h0c-2.24-.21-3.9-2.27-3.69-4.59h0c.22-2.32,2.21-4.02,4.46-3.8h0c2.24,.21,3.89,2.27,3.68,4.59h0c-.2,2.18-1.98,3.82-4.06,3.82h0c-.12,0-.25,0-.38-.02Z"/><path class="cls-2" d="M51.26,58.09c-.11-1.08,.64-2.05,1.69-2.17h0c1.05-.11,1.99,.66,2.1,1.74h0c.12,1.08-.64,2.06-1.69,2.17h.01c-.08,.01-.14,.01-.22,.01h0c-.96,0-1.79-.74-1.9-1.75Z"/><path class="cls-2" d="M56.1,57.31c-.52-.93-.22-2.15,.69-2.69h0c.91-.55,2.08-.24,2.61,.71h0c.52,.93,.22,2.14-.69,2.69h0c-.31,.18-.63,.27-.96,.27h0c-.66,0-1.3-.35-1.66-.98Z"/><path class="cls-2" d="M60.22,54.57c-.85-.64-1.05-1.87-.44-2.75h0c.62-.88,1.81-1.08,2.67-.44h0c.85,.63,1.05,1.87,.42,2.74h0c-.37,.54-.96,.82-1.55,.82h0c-.38,0-.77-.12-1.11-.37Z"/><path class="cls-2" d="M62.89,50.33c-1.04-.22-1.69-1.26-1.47-2.33h0v-.03h0c.21-1.07,1.22-1.75,2.24-1.54h0c1.04,.21,1.71,1.25,1.49,2.32h0s0,.03-.01,.06h0c-.19,.93-.98,1.57-1.86,1.57h0c-.13,0-.26-.02-.39-.04Z"/><path class="cls-2" d="M61.4,43.79c-.23-1.06,.41-2.1,1.45-2.34h0c1.02-.24,2.04,.43,2.27,1.49h0c.23,1.06-.41,2.11-1.45,2.35h0c-.13,.02-.27,.04-.41,.04h0c-.87,0-1.67-.63-1.85-1.55Z"/><path class="cls-2" d="M59.72,40c-.63-.88-.45-2.11,.4-2.75h0c.84-.65,2.04-.46,2.66,.42h0c.63,.88,.45,2.1-.39,2.75h0c-.35,.26-.74,.38-1.13,.38h0c-.59,0-1.17-.28-1.54-.8Z"/><path class="cls-2" d="M56.7,37.23c-.93-.53-1.24-1.73-.72-2.67h0c.51-.94,1.68-1.28,2.59-.74h0c.91,.54,1.24,1.73,.72,2.69h0c-.35,.63-.99,.99-1.66,.99h0c-.33,0-.64-.08-.94-.26Z"/><path class="cls-2" d="M52.86,36c-1.05-.09-1.82-1.04-1.73-2.12h0c.09-1.08,1.01-1.89,2.06-1.79h0c1.05,.09,1.83,1.05,1.74,2.12h0c-.09,1.02-.93,1.8-1.91,1.8h0c-.06,0-.11,0-.16-.01Z"/></g></g></g></g></g></svg>