<svg version="1.1" xmlns="http://www.w3.org/2000/svg" xmlns:xlink="http://www.w3.org/1999/xlink" id="tdwg-logo-short" x="0px" y="0px" viewBox="0 0 172.1 56.9" xml:space="preserve"><g fill="#ffffff"><g><path d="M110.5,26.4c-0.4-0.1-0.8-0.2-1.7-0.2h-3.3v7.3h3.2c0.2,0,1.1,0,1.8-0.2c1-0.4,1.9-1.3,1.9-3.6c0-0.3,0-2-1-2.9C111.2,26.7,110.9,26.5,110.5,26.4z"/><path d="M162,19.5H82c-5.6,0-10.2,4.5-10.2,10.2S76.4,39.8,82,39.8h80c5.6,0,10.2-4.5,10.2-10.2S167.6,19.5,162,19.5z M96.4,26.2h-4.2v9.3h-2.9v-9.3h-4.2v-2.1h11.3L96.4,26.2L96.4,26.2z M113.5,34c-0.3,0.3-1,0.9-2.1,1.2c-0.7,0.2-1.3,0.3-2.8,0.3h-5.9V24.1h6.2c1.4,0,2.6,0.1,3.8,0.9c0.2,0.1,0.5,0.3,0.9,0.7c1,1,1.4,2.6,1.4,4C115.2,32.1,114.2,33.4,113.5,34z M134.8,35.5H132l-2.8-8.3l-2.7,8.3h-2.8l-3-11.4h2.8l1.7,7.8l2.6-7.8h3l2.6,7.8l1.7-7.8h2.7L134.8,35.5z M146.6,31.4c0.9,2.3,3.4,2.4,4,2.4c1.2,0,2.7-0.4,3.6-1.4c0.4-0.4,0.5-0.7,0.5-0.9H151v-2h6.1v6.1h-2.2v-1.3c-0.1,0.1-0.3,0.2-0.4,0.4c-0.5,0.4-1.5,1-3,1.2c-0.4,0.1-0.9,0.1-1.3,0.1c-2.4,0-3.8-0.6-4.6-1.3c-0.7-0.5-1.7-1.4-2.1-3.3c0-0.2-0.2-0.8-0.2-1.5c0-2.1,1-3.5,1.5-4c0.3-0.3,0.7-0.6,1.1-0.9c1.4-0.9,3-1.1,4.6-1.1c0.8,0,3.8,0,5.7,2.1c0.3,0.4,0.5,0.7,0.8,1.1l-3.1,0.4c-0.1-0.1-0.3-0.4-0.6-0.7c-0.8-0.6-1.8-0.9-2.8-0.9c-1.4,0-2.8,0.5-3.6,1.7c-0.2,0.4-0.6,1.1-0.6,2.2C146.3,30.1,146.3,30.7,146.6,31.4z"/></g><g><g><g><ellipse cx="17.9" cy="28.2" rx="2.1" ry="2"/></g><g><ellipse cx="24.9" cy="2.3" rx="2.1" ry="2"/></g><g><ellipse cx="15.7" cy="8.5" rx="1.7" ry="1.7"/></g><g><ellipse cx="15.5" cy="14.3" rx="2.9" ry="2.9"/></g><g><ellipse cx="9.8" cy="19.4" rx="1.9" ry="1.9"/></g><g><ellipse cx="7" cy="24.6" rx="3.2" ry="3.1"/></g><g><ellipse cx="8.6" cy="32.7" rx="1.9" ry="1.9"/></g><g><ellipse cx="9.2" cy="38.4" rx="2.9" ry="2.9"/></g><g><ellipse cx="14.1" cy="42.3" rx="1.4" ry="1.4"/></g><g><ellipse cx="19.5" cy="23.5" rx="1.4" ry="1.4"/></g><g><ellipse cx="16.9" cy="34" rx="1.7" ry="1.6"/></g><g><ellipse cx="1" cy="28" rx="1" ry="1"/></g><g><ellipse cx="2.9" cy="36.8" rx="1.4" ry="1.4"/></g><g><ellipse cx="13" cy="27.7" rx="1.4" ry="1.3"/></g><g><ellipse cx="13.6" cy="18.9" rx="1.2" ry="1.2"/></g><g><ellipse cx="17.6" cy="42.9" rx="1.4" ry="1.4"/></g><g><ellipse cx="24.3" cy="46.7" rx="2.6" ry="2.6"/></g><g><ellipse cx="21.1" cy="36.3" rx="1.5" ry="1.5"/></g><g><ellipse cx="25.3" cy="34.6" rx="1.5" ry="1.5"/></g><g><ellipse cx="25.2" cy="7.3" rx="1.8" ry="1.8"/></g><g><ellipse cx="21.5" cy="13.1" rx="2.4" ry="2.4"/></g><g><ellipse cx="20.4" cy="7.6" rx="2.4" ry="2.3"/></g><g><ellipse cx="10.6" cy="9.9" rx="2.8" ry="2.8"/></g><g><ellipse cx="10.6" cy="15.9" rx="1.3" ry="1.3"/></g><g><ellipse cx="3.5" cy="20" rx="1.9" ry="1.9"/></g><g><ellipse cx="1.8" cy="24.6" rx="1.7" ry="1.6"/></g><g><ellipse cx="3.3" cy="31.6" rx="2.7" ry="2.7"/></g><g><ellipse cx="4.4" cy="40.8" rx="1.6" ry="1.6"/></g><g><ellipse cx="8.6" cy="46" rx="1.8" ry="1.8"/></g><g><ellipse cx="15.1" cy="47.6" rx="3.1" ry="3.1"/></g><g><ellipse cx="18" cy="53.1" rx="2" ry="2"/></g><g><ellipse cx="23.9" cy="53.3" rx="3.1" ry="3"/></g><g><ellipse cx="6.3" cy="14" rx="1.9" ry="1.9"/></g><g><ellipse cx="25.4" cy="18" rx="1.8" ry="1.8"/></g><g><ellipse cx="12.7" cy="23.1" rx="2.1" ry="2.1"/></g><g><ellipse cx="23.1" cy="21.3" rx="1.7" ry="1.7"/></g><g><ellipse cx="21.2" cy="17.5" rx="1.3" ry="1.3"/></g><g><ellipse cx="22.8" cy="28.6" rx="1.2" ry="1.2"/></g><g><ellipse cx="26.3" cy="22.8" rx="0.9" ry="0.9"/></g><g><ellipse cx="26.2" cy="29.1" rx="0.9" ry="0.9"/></g><g><ellipse cx="25.8" cy="14.6" rx="0.9" ry="0.9"/></g><g><ellipse cx="25.9" cy="11.4" rx="1.2" ry="1.2"/></g><g><ellipse cx="25.8" cy="41.8" rx="0.9" ry="0.9"/></g><g><ellipse cx="12.4" cy="35.4" rx="0.9" ry="0.9"/></g><g><ellipse cx="7" cy="29.4" rx="0.9" ry="0.9"/></g><g><ellipse cx="10.5" cy="49.2" rx="1.2" ry="1.2"/></g><g><ellipse cx="6.7" cy="43.5" rx="0.9" ry="0.9"/></g><g><ellipse cx="20.2" cy="49.3" rx="1.3" ry="1.3"/></g><g><ellipse cx="16.5" cy="3.9" rx="1.3" ry="1.3"/></g><g><ellipse cx="17.2" cy="19.5" rx="1.7" ry="1.7"/></g><g><ellipse cx="16.4" cy="24.3" rx="1" ry="1"/></g><g><ellipse cx="13.6" cy="5.3" rx="1" ry="1"/></g><g><ellipse cx="6.6" cy="17.6" rx="1.2" ry="1.2"/></g><g><ellipse cx="9.9" cy="28.6" rx="1" ry="1"/></g><g><ellipse cx="13.3" cy="31.7" rx="1.9" ry="1.9"/></g><g><ellipse cx="20.7" cy="31.9" rx="1.8" ry="1.8"/></g><g><ellipse cx="15.1" cy="38.2" rx="2.1" ry="2.1"/></g><g><ellipse cx="18.8" cy="39.2" rx="0.9" ry="0.9"/></g><g><ellipse cx="19.6" cy="45.7" rx="0.9" ry="0.9"/></g><g><ellipse cx="10.7" cy="43.5" rx="0.9" ry="0.9"/></g><g><ellipse cx="5.8" cy="35.4" rx="0.9" ry="0.9"/></g><g><ellipse cx="22" cy="41.6" rx="2.1" ry="2.1"/></g><g><ellipse cx="25.3" cy="38.3" rx="1.7" ry="1.7"/></g><g><ellipse cx="26" cy="25.9" rx="1" ry="1"/></g><g><ellipse cx="24.8" cy="31.5" rx="1" ry="1"/></g><g><ellipse cx="22.8" cy="25.3" rx="1.4" ry="1.4"/></g><g><ellipse cx="19.9" cy="2.6" rx="1.4" ry="1.4"/></g></g><path d="M29.3,56.9L29.3,56.9c-0.4,0-0.8-0.4-0.8-0.8V0.8c0-0.4,0.4-0.8,0.8-0.8l0,0c0.4,0,0.8,0.4,0.8,0.8v55.3C30.2,56.6,29.8,56.9,29.3,56.9z"/><g><g><path d="M31.4,53.1c-0.1-1.8,1.1-3.4,2.9-3.5l0,0c1.7-0.1,3.2,1.2,3.4,3l0,0c0.1,1.8-1.1,3.4-2.9,3.5l0,0c-0.1,0-0.2,0-0.3,0l0,0C32.9,56.1,31.5,54.8,31.4,53.1z"/><path d="M39.2,52c-0.7-1.6,0-3.6,1.6-4.3l0,0c1.6-0.7,3.4,0,4.1,1.7l0,0c0.7,1.6,0,3.6-1.6,4.3l0,0l0,0l0,0c-0.4,0.2-0.8,0.3-1.3,0.3l0,0C40.8,53.9,39.7,53.2,39.2,52z"/><path d="M45.8,48.4c-1.2-1.3-1.1-3.4,0.2-4.6l0,0c1.3-1.2,3.3-1.1,4.4,0.2l0,0c1.2,1.3,1.1,3.4-0.2,4.6l0,0c-0.6,0.6-1.4,0.9-2.1,0.9l0,0C47.3,49.4,46.5,49.1,45.8,48.4z"/><path d="M51.1,43c-1.5-0.9-2.1-2.8-1.3-4.4h0c0.8-1.6,2.7-2.1,4.3-1.3l0,0c1.5,0.9,2.1,2.8,1.3,4.4l0,0l0,0l0,0c-0.6,1.1-1.7,1.7-2.8,1.7l0,0C52.1,43.4,51.6,43.3,51.1,43z"/><path d="M54.5,35.7c-1.7-0.3-2.9-2-2.6-3.7l0,0c0,0,0-0.1,0-0.1l0,0c0.3-1.8,1.9-3,3.6-2.7l0,0c1.7,0.3,2.9,2,2.6,3.7l0,0l0,0l0,0c0,0,0,0.1,0,0.1l0,0v0l0,0l0,0l0,0c-0.3,1.6-1.6,2.7-3.1,2.7l0,0C54.9,35.8,54.7,35.8,54.5,35.7z"/><path d="M51.9,24.9L51.9,24.9c-0.3-1.8,0.9-3.4,2.6-3.7l0,0c1.7-0.3,3.3,0.9,3.6,2.7l0,0c0.3,1.8-0.9,3.4-2.6,3.7l0,0c-0.2,0-0.4,0-0.5,0l0,0C53.5,27.6,52.2,26.5,51.9,24.9z"/><path d="M49.5,18.9L49.5,18.9c-0.8-1.6-0.3-3.5,1.3-4.4l0,0c1.5-0.9,3.4-0.3,4.3,1.3l0,0c0,0,0,0,0,0l0,0c0.8,1.6,0.3,3.5-1.3,4.4l0,0c-0.5,0.3-1,0.4-1.5,0.4l0,0C51.2,20.6,50.1,20,49.5,18.9z"/><path d="M46,13.4c-1.3-1.2-1.4-3.3-0.2-4.6l0,0C47,7.5,49,7.4,50.2,8.6l0,0c1.3,1.2,1.4,3.3,0.2,4.6l0,0c-0.6,0.7-1.5,1-2.3,1l0,0C47.4,14.3,46.6,14,46,13.4z"/><path d="M40.6,9.1C39,8.4,38.3,6.5,39,4.9l0,0c0.7-1.6,2.5-2.4,4.1-1.7l0,0c1.6,0.7,2.3,2.6,1.6,4.3l0,0c-0.5,1.2-1.7,1.9-2.9,1.9l0,0C41.5,9.4,41,9.3,40.6,9.1z"/><path d="M34.5,7.1c-1.7-0.1-3-1.7-2.9-3.4l0,0c0.1-1.8,1.6-3.1,3.3-3l0,0c1.7,0.1,3,1.7,2.9,3.4l0,0c-0.1,1.7-1.5,3-3.1,3l0,0C34.6,7.1,34.6,7.1,34.5,7.1z"/><path d="M31.7,40.3c-0.1-1,0.6-1.8,1.5-1.9l0,0c0.9-0.1,1.8,0.6,1.9,1.5l0,0c0.1,1-0.6,1.8-1.5,1.9l0,0c-0.1,0-0.1,0-0.2,0l0,0C32.6,41.8,31.8,41.1,31.7,40.3z"/><path d="M36.4,39.4c-0.5-0.8-0.2-1.9,0.6-2.4l0,0c0.8-0.5,1.8-0.2,2.3,0.6l0,0c0.5,0.8,0.2,1.9-0.6,2.4l0,0c-0.3,0.2-0.6,0.2-0.9,0.2l0,0C37.3,40.3,36.7,40,36.4,39.4z"/><path d="M40.2,36.7c-0.8-0.6-0.9-1.6-0.4-2.4l0,0c0.5-0.8,1.6-1,2.4-0.4l0,0c0.8,0.6,0.9,1.7,0.4,2.4l0,0c-0.3,0.5-0.8,0.7-1.4,0.7l0,0C40.9,37,40.5,36.9,40.2,36.7z"/><path d="M42.7,32.6c-0.9-0.2-1.5-1.1-1.3-2.1h0l0,0l0,0c0,0,0,0,0,0l0,0c0.2-0.9,1.1-1.6,2-1.4l0,0c0.9,0.2,1.5,1.1,1.3,2.1l0,0c0,0,0,0,0,0l0,0l0,0l0,0l0,0l0,0c-0.2,0.8-0.9,1.4-1.7,1.4l0,0C43,32.6,42.9,32.6,42.7,32.6z"/><path d="M41.4,26.4c-0.2-0.9,0.4-1.9,1.3-2.1l0,0c0.9-0.2,1.8,0.4,2,1.3l0,0c0.2,0.9-0.4,1.9-1.3,2.1l0,0c-0.1,0-0.2,0-0.4,0l0,0C42.3,27.8,41.6,27.2,41.4,26.4z"/><path d="M39.8,22.7c-0.6-0.8-0.4-1.9,0.4-2.4l0,0c0.8-0.6,1.8-0.4,2.4,0.4l0,0c0.6,0.8,0.4,1.9-0.4,2.4l0,0c-0.3,0.2-0.7,0.3-1,0.3l0,0C40.6,23.4,40.1,23.2,39.8,22.7z"/><path d="M36.9,20c-0.8-0.5-1.1-1.5-0.6-2.4l0,0c0.5-0.8,1.5-1.1,2.3-0.7l0,0c0.8,0.5,1.1,1.5,0.6,2.4l0,0c-0.3,0.6-0.9,0.9-1.5,0.9l0,0C37.4,20.2,37.2,20.1,36.9,20z"/><path d="M33.1,18.8c-0.9-0.1-1.6-0.9-1.5-1.9l0,0c0.1-1,0.9-1.7,1.8-1.6l0,0c0.9,0.1,1.6,0.9,1.5,1.9l0,0c-0.1,0.9-0.8,1.6-1.7,1.6l0,0C33.2,18.8,33.2,18.8,33.1,18.8z"/></g><g><path d="M31.5,46.1c-0.1-1.4,0.9-2.7,2.3-2.9l0,0c1.4-0.1,2.6,0.9,2.8,2.3l0,0c0.1,1.4-0.9,2.7-2.3,2.9l0,0l0,0l0,0c-0.1,0-0.2,0-0.3,0l0,0C32.7,48.5,31.6,47.5,31.5,46.1z"/><path d="M38.5,45c-0.7-1.3-0.3-2.9,0.9-3.6l0,0c1.2-0.7,2.8-0.3,3.5,1l0,0c0.7,1.3,0.3,2.9-0.9,3.6l0,0c-0.4,0.2-0.8,0.3-1.3,0.3l0,0C39.8,46.3,38.9,45.8,38.5,45z"/><path d="M44,40.9c-1.1-0.9-1.4-2.5-0.5-3.7l0,0c0.8-1.2,2.4-1.4,3.5-0.6l0,0c1.1,0.9,1.4,2.5,0.5,3.7l0,0c-0.5,0.7-1.3,1.1-2,1.1l0,0C45,41.5,44.5,41.3,44,40.9z"/><path d="M47.7,34.8c-1.4-0.3-2.2-1.7-1.9-3.1l0,0c0,0,0,0,0,0l0,0c0,0,0,0,0,0l0,0c0.3-1.4,1.6-2.3,3-2l0,0c1.4,0.3,2.2,1.7,2,3.1l0,0c0,0,0,0,0,0l0,0c0,0,0,0,0,0l0,0l0,0l0,0c-0.3,1.2-1.3,2.1-2.5,2.1l0,0C48,34.9,47.8,34.8,47.7,34.8z"/><path d="M45.7,25.5c-0.3-1.4,0.6-2.8,2-3.1l0,0c1.4-0.3,2.7,0.6,3,2l0,0c0.3,1.4-0.6,2.8-2,3.1l0,0c-0.2,0-0.4,0.1-0.5,0.1l0,0C47,27.6,46,26.7,45.7,25.5z"/><path d="M43.5,19.9L43.5,19.9c-0.8-1.2-0.6-2.8,0.6-3.6l0,0c1.1-0.9,2.7-0.6,3.5,0.6l0,0c0.8,1.2,0.6,2.8-0.6,3.7l0,0c-0.4,0.3-1,0.5-1.5,0.5l0,0C44.8,20.9,44,20.6,43.5,19.9z"/><path d="M39.5,15.7c-1.2-0.7-1.6-2.3-0.9-3.6l0,0c0.7-1.3,2.3-1.7,3.5-1l0,0c1.2,0.7,1.6,2.3,0.9,3.6l0,0c-0.5,0.8-1.3,1.3-2.2,1.3l0,0C40.3,16.1,39.9,16,39.5,15.7z"/><path d="M33.8,13.9L33.8,13.9c-1.4-0.1-2.4-1.4-2.3-2.8l0,0c0.1-1.4,1.4-2.5,2.8-2.4l0,0l0,0l0,0c1.4,0.1,2.4,1.4,2.3,2.8l0,0c-0.1,1.4-1.2,2.4-2.5,2.4l0,0C34,13.9,33.9,13.9,33.8,13.9z"/><path d="M31.8,36.1c-0.1-0.7,0.4-1.3,1-1.3l0,0c0.6-0.1,1.2,0.4,1.3,1.1l0,0c0.1,0.7-0.4,1.3-1,1.3l0,0c0,0,0,0,0,0l0,0c0,0-0.1,0-0.1,0l0,0C32.4,37.2,31.9,36.7,31.8,36.1z"/><path d="M34.8,35.6c-0.3-0.6-0.1-1.3,0.4-1.7l0,0c0.6-0.3,1.3-0.1,1.6,0.4l0,0c0.3,0.6,0.1,1.3-0.4,1.7l0,0c-0.2,0.1-0.4,0.2-0.6,0.2l0,0C35.5,36.2,35.1,36,34.8,35.6z"/><path d="M37.4,33.9c-0.5-0.4-0.6-1.2-0.3-1.7l0,0c0.4-0.5,1.1-0.7,1.7-0.3l0,0c0.5,0.4,0.6,1.2,0.3,1.7l0,0l0,0l0,0c-0.2,0.3-0.6,0.5-1,0.5l0,0C37.9,34.1,37.6,34,37.4,33.9z"/><path d="M39.1,31.3c-0.6-0.1-1-0.8-0.9-1.4l0,0c0,0,0,0,0,0l0,0c0.1-0.7,0.8-1.1,1.4-1l0,0c0.6,0.1,1.1,0.8,0.9,1.4l0,0c0,0,0,0,0,0l0,0l0,0l0,0l0,0l0,0c-0.1,0.6-0.6,1-1.2,1l0,0C39.2,31.3,39.1,31.3,39.1,31.3z"/><path d="M38.1,27.2c-0.1-0.7,0.3-1.3,0.9-1.5l0,0c0.6-0.1,1.3,0.3,1.4,0.9l0,0c0.1,0.7-0.3,1.3-0.9,1.5l0,0c-0.1,0-0.2,0-0.3,0l0,0C38.7,28.2,38.2,27.8,38.1,27.2z"/><path d="M37.1,24.8c-0.4-0.5-0.3-1.3,0.2-1.7l0,0c0.5-0.4,1.3-0.3,1.7,0.3l0,0c0.4,0.5,0.3,1.3-0.2,1.7l0,0c-0.2,0.2-0.5,0.2-0.7,0.2l0,0C37.7,25.3,37.3,25.2,37.1,24.8z"/><path d="M35.2,23.1c-0.6-0.3-0.8-1.1-0.4-1.7l0,0c0.3-0.6,1-0.8,1.6-0.5l0,0l0,0l0,0c0.6,0.3,0.8,1.1,0.4,1.7l0,0c-0.2,0.4-0.6,0.6-1,0.6l0,0C35.6,23.3,35.4,23.2,35.2,23.1z"/><path d="M32.8,22.4c-0.6-0.1-1.1-0.6-1.1-1.3l0,0c0.1-0.7,0.6-1.2,1.3-1.1l0,0c0.6,0.1,1.1,0.6,1.1,1.3l0,0c-0.1,0.6-0.6,1.1-1.2,1.1l0,0C32.9,22.4,32.9,22.4,32.8,22.4z"/></g></g></g></g></svg>